<svg width="15" height="24" viewBox="0 0 15 24" fill="none" xmlns="http://www.w3.org/2000/svg">
<path fill-rule="evenodd" clip-rule="evenodd" d="M8.78467 8.16667L8.38537 3.95C8.03776 2.45353 7.74689 1.4439 7.51275 0.921077C7.51059 0.91624 7.50843 0.911438 7.50627 0.906688C7.38451 0.638286 7.27824 0.502721 7.18745 0.5L7.15002 0.511978C7.06788 0.570554 6.97813 0.703813 6.88076 0.911745L6.87831 0.91703C6.63103 1.44761 6.33477 2.4586 5.98954 3.95L5.59023 8.16667L4.79162 10.85L4.79162 11.6167L0.399266 15.1266L0.399266 14.3C0.399266 14.1978 0.394727 14.1023 0.38565 14.0136C0.37861 13.9448 0.368839 13.8801 0.356339 13.8195C0.352226 13.7995 0.347817 13.78 0.343113 13.7609C0.305679 13.6092 0.257845 13.5333 0.199613 13.5333C0.141381 13.5333 0.0935477 13.6092 0.0561128 13.7609C0.0514089 13.78 0.0470005 13.7995 0.0428877 13.8195C0.0303869 13.8801 0.0206164 13.9448 0.0135761 14.0136C0.00449909 14.1023 -3.94252e-05 14.1978 -3.94208e-05 14.3L-3.92532e-05 18.1333L0.399266 18.1333L0.399266 17.3667L5.59023 17.3667L5.59023 19.2833L2.7951 21.5833L2.7951 22.7333L3.1944 23.1167L5.59023 23.1167L5.59023 22.7333L5.98954 22.7333L5.98954 21.2L6.08936 21.2L6.38884 23.5L7.98606 23.5L8.28554 21.2L8.38537 21.2L8.38537 22.7333L8.78467 22.7333L8.78467 23.1167L11.1805 23.1167L11.5798 22.7333L11.5798 21.5833L8.78467 19.2833L8.78467 17.3667L13.9756 17.3667L13.9756 18.1333L14.3749 18.1333L14.3749 14.3C14.3749 14.1978 14.3704 14.1023 14.3613 14.0136C14.3543 13.9448 14.3445 13.8801 14.332 13.8195C14.3279 13.7995 14.3235 13.78 14.3188 13.7609C14.2814 13.6092 14.2335 13.5333 14.1753 13.5333C14.1171 13.5333 14.0692 13.6092 14.0318 13.7609C14.0271 13.78 14.0227 13.7995 14.0186 13.8195C14.0061 13.8801 13.9963 13.9448 13.9893 14.0136C13.9802 14.1023 13.9756 14.1978 13.9756 14.3L13.9756 15.1266L9.58328 11.6167L9.58328 10.85L8.78467 8.16667Z" fill="white"/>
</svg>
