<svg width="56" height="56" viewBox="0 0 56 56" fill="none" xmlns="http://www.w3.org/2000/svg">
<rect width="56" height="56" rx="8" fill="#009CB4"/>
<path fill-rule="evenodd" clip-rule="evenodd" d="M16 16V40H40V16H16ZM38.4743 38.4679H17.5257V17.5289H38.4743V38.4679Z" fill="white"/>
<path fill-rule="evenodd" clip-rule="evenodd" d="M37.5422 35.2664C35.7547 35.6143 34.0024 35.7898 32.3298 35.8026C34.0024 35.6175 35.7005 35.3047 37.5422 34.7365V18.3301H26.1343C22.869 22.2561 22.0327 26.6514 24.6309 29.7508C26.0896 31.4903 28.3846 32.5437 31.1041 32.9267C27.4111 32.7033 24.3085 31.4744 22.5115 29.2815C20.1399 26.3897 20.558 22.2785 23.2775 18.3301H18.4194V37.4465H37.5422V35.2664ZM23.2073 33.4342C22.4157 32.9044 21.7263 32.2851 21.139 31.5701C19.2142 29.2273 18.8535 26.3003 19.7728 23.2871C19.3674 25.7258 19.8749 28.0878 21.5124 30.0923C24.2223 33.3959 29.2241 34.6791 34.762 34.1237C30.3859 35.027 26.2045 35.3111 23.2073 33.4342Z" fill="white"/>
</svg>
